<?xml version="1.0" standalone="no"?>
<!DOCTYPE svg PUBLIC "-//W3C//DTD SVG 20010904//EN"
 "http://www.w3.org/TR/2001/REC-SVG-20010904/DTD/svg10.dtd">
<svg version="1.0" xmlns="http://www.w3.org/2000/svg"
 width="1025.000000pt" height="1025.000000pt" viewBox="0 0 1025.000000 1025.000000"
 preserveAspectRatio="xMidYMid meet">
<metadata>
Created by potrace 1.14, written by Peter Selinger 2001-2017
</metadata>
<g transform="translate(0.000000,1025.000000) scale(0.100000,-0.100000)"
fill="#000000" stroke="none">
<path d="M5955 8280 c-2 -3 -22 -5 -44 -3 -23 1 -41 -1 -41 -5 0 -4 -9 -8 -20
-8 -11 0 -20 4 -20 9 0 6 -5 5 -12 0 -7 -6 -25 -9 -40 -8 -16 1 -28 -1 -28 -5
0 -4 -16 -6 -35 -5 -19 1 -35 -2 -35 -7 0 -4 -3 -7 -7 -6 -5 1 -30 -2 -58 -7
-27 -5 -53 -8 -57 -7 -5 1 -8 -2 -8 -7 0 -5 -8 -8 -17 -6 -10 1 -24 -3 -32 -9
-12 -9 -13 -8 -7 3 7 10 3 10 -15 -2 -13 -8 -32 -13 -41 -12 -10 2 -18 -1 -18
-6 0 -5 -3 -8 -7 -8 -5 1 -11 0 -15 -1 -9 -3 -12 -4 -58 -14 -19 -5 -41 -13
-49 -20 -11 -8 -13 -8 -8 1 4 6 -11 3 -32 -8 -22 -10 -46 -19 -54 -19 -7 0
-17 -3 -21 -7 -4 -5 -11 -8 -14 -9 -4 0 -15 -4 -24 -7 -10 -4 -26 -10 -35 -14
-10 -3 -22 -5 -26 -4 -4 0 -10 -6 -14 -15 -5 -13 -7 -13 -14 -2 -7 10 -9 11
-9 0 0 -7 -4 -10 -10 -7 -5 3 -10 1 -10 -4 0 -6 -3 -10 -7 -9 -5 1 -21 -4 -36
-10 -16 -7 -33 -12 -38 -12 -5 0 -9 -4 -9 -10 0 -5 -5 -10 -12 -10 -19 0 -108
-43 -108 -52 0 -4 -8 -8 -18 -8 -10 0 -27 -7 -38 -15 -12 -8 -24 -11 -28 -8
-3 3 -6 2 -6 -3 0 -5 -17 -18 -37 -29 -21 -11 -41 -24 -45 -30 -4 -5 -8 -6 -8
-2 0 5 -13 -1 -29 -12 -16 -12 -34 -21 -40 -21 -6 0 -11 -3 -11 -8 0 -4 -17
-16 -37 -27 -21 -11 -40 -22 -43 -25 -8 -9 -54 -37 -62 -39 -5 0 -17 -9 -27
-18 -36 -33 -50 -43 -60 -43 -5 0 -16 -8 -23 -19 -7 -10 -23 -21 -36 -25 -12
-4 -20 -12 -17 -17 5 -8 -1 -11 -21 -8 -3 0 -13 -8 -22 -19 -9 -10 -44 -41
-77 -67 -33 -27 -62 -52 -63 -57 -2 -4 -8 -6 -13 -2 -5 3 -9 -3 -9 -12 0 -10
-3 -15 -6 -12 -3 3 -40 -27 -82 -68 -42 -41 -80 -74 -86 -74 -5 0 -7 -2 -5 -5
3 -2 -30 -41 -73 -86 -43 -45 -78 -86 -78 -91 0 -4 -7 -8 -16 -8 -8 0 -12 -4
-9 -10 3 -5 -3 -15 -15 -22 -11 -7 -20 -17 -20 -23 0 -5 -16 -27 -36 -47 -19
-21 -32 -38 -28 -38 4 0 -5 -9 -20 -21 -14 -11 -26 -25 -26 -30 0 -11 -51 -82
-62 -87 -5 -2 -8 -8 -8 -12 0 -12 -62 -104 -72 -108 -5 -2 -6 -8 -2 -13 3 -5
0 -9 -6 -9 -6 0 -8 -4 -5 -10 3 -5 1 -10 -4 -10 -6 0 -11 -6 -11 -13 0 -8 -11
-27 -24 -42 -14 -16 -24 -31 -24 -34 2 -8 -14 -45 -21 -51 -6 -5 -44 -80 -46
-90 0 -3 -7 -16 -15 -30 -8 -14 -15 -30 -16 -36 -1 -5 -13 -35 -27 -66 -14
-30 -31 -74 -37 -97 -6 -23 -15 -39 -20 -36 -6 3 -7 0 -5 -8 3 -7 -1 -30 -10
-50 -8 -20 -13 -37 -10 -37 3 0 -1 -13 -10 -29 -11 -23 -12 -31 -2 -34 9 -4 9
-6 -1 -6 -7 -1 -10 -5 -7 -11 3 -5 1 -10 -5 -10 -6 0 -8 -5 -5 -10 4 -6 1 -17
-5 -25 -7 -8 -10 -15 -7 -15 3 0 1 -15 -4 -32 -5 -18 -12 -53 -15 -78 -3 -25
-11 -48 -18 -52 -8 -6 -8 -8 1 -8 9 0 10 -7 4 -22 -4 -13 -7 -38 -6 -55 0 -18
-2 -33 -6 -33 -3 0 -6 -18 -5 -41 1 -22 -2 -43 -6 -46 -5 -2 -4 -11 2 -18 6
-7 7 -16 3 -18 -12 -7 -4 -297 7 -297 3 0 5 -16 4 -35 -1 -19 1 -35 5 -35 5 0
11 -38 14 -92 1 -10 5 -18 9 -18 4 0 7 -3 6 -7 -4 -15 26 -113 34 -113 5 0 7
-3 5 -7 -3 -5 0 -19 6 -33 5 -14 11 -31 13 -39 1 -8 6 -17 11 -20 4 -3 9 -13
11 -21 2 -8 8 -16 13 -18 5 -2 9 -12 9 -21 0 -10 9 -30 20 -44 11 -14 20 -28
20 -32 0 -9 63 -99 73 -103 4 -2 7 -8 7 -12 0 -14 164 -190 176 -190 3 0 16
-10 30 -22 56 -51 64 -58 69 -58 9 0 70 -44 73 -52 2 -5 10 -8 18 -8 8 0 14
-5 14 -11 0 -5 4 -8 9 -5 5 3 14 -1 21 -9 7 -8 19 -15 26 -15 8 0 14 -4 14
-10 0 -5 7 -10 15 -10 8 0 30 -9 50 -20 20 -11 41 -20 48 -20 7 0 18 -5 25
-12 6 -6 18 -13 26 -14 7 -1 29 -9 47 -17 60 -26 225 -77 259 -80 11 -1 20 -4
20 -7 0 -3 8 -6 18 -6 28 -2 95 -11 123 -19 14 -3 47 -8 75 -10 27 -2 49 -4
49 -6 0 -8 332 -5 343 4 8 6 12 6 12 -2 0 -7 8 -8 23 -2 12 4 34 8 50 7 15 -1
27 2 27 6 0 4 5 8 11 8 5 0 7 -6 3 -12 -6 -10 -4 -10 8 0 9 7 38 16 65 19 61
7 74 9 93 15 27 10 105 31 120 33 8 1 29 8 45 15 17 6 37 13 45 15 8 2 16 4
18 5 1 2 5 4 10 5 4 1 23 8 42 16 19 7 38 12 43 11 4 -1 7 3 7 8 0 5 3 9 8 8
4 -1 26 8 50 20 23 12 42 19 42 16 0 -4 9 1 20 11 11 10 20 14 20 9 0 -5 4 -4
8 2 4 6 41 31 82 55 41 24 82 49 90 56 8 7 41 32 72 56 32 24 55 47 51 51 -3
3 1 6 10 6 10 0 17 3 17 8 0 4 19 26 41 50 23 23 54 68 69 100 26 54 31 93 21
168 0 6 -16 28 -35 48 -31 33 -46 41 -68 37 -5 0 -8 4 -8 10 0 7 -10 9 -25 7
-14 -3 -25 -1 -25 6 0 6 -4 5 -9 -3 -5 -8 -18 -12 -30 -8 -12 3 -21 2 -21 -3
0 -4 -8 -11 -17 -14 -28 -10 -69 -36 -58 -36 6 -1 -2 -8 -17 -16 -16 -8 -28
-20 -28 -26 0 -6 -3 -9 -6 -6 -3 4 -18 -6 -32 -21 -15 -15 -40 -36 -57 -47
-16 -10 -34 -24 -38 -31 -5 -8 -12 -11 -18 -8 -5 4 -9 1 -9 -4 0 -6 -7 -11
-15 -11 -8 0 -15 -4 -15 -10 0 -5 -7 -10 -15 -10 -8 0 -15 -5 -15 -11 0 -5 -4
-8 -9 -4 -5 3 -12 2 -15 -3 -4 -7 -97 -55 -161 -83 -63 -27 -124 -47 -129 -42
-3 4 -6 1 -6 -6 0 -7 -8 -11 -17 -10 -10 1 -27 -1 -38 -5 -11 -5 -33 -13 -48
-18 -16 -6 -43 -12 -60 -13 -18 -2 -34 -4 -37 -5 -3 -2 -9 -4 -15 -5 -5 -2
-12 -3 -15 -4 -3 -1 -26 -4 -52 -6 -26 -2 -52 -6 -58 -10 -5 -3 -10 0 -10 7 0
9 -2 10 -8 1 -9 -14 -271 -15 -289 0 -9 6 -13 5 -13 -4 0 -9 -3 -10 -8 -4 -4
6 -25 11 -47 13 -37 2 -73 8 -85 12 -3 1 -9 3 -15 4 -43 6 -135 32 -135 37 0
5 -9 6 -20 4 -11 -2 -20 0 -20 6 0 5 -3 8 -7 7 -5 -1 -24 4 -43 11 -19 8 -38
13 -42 12 -5 0 -8 4 -8 9 0 5 -3 10 -7 9 -16 -2 -53 14 -53 23 0 5 -4 6 -10 3
-5 -3 -10 -2 -10 3 0 4 -16 16 -36 25 -35 17 -48 26 -85 59 -10 10 -23 18 -29
18 -5 0 -10 7 -10 15 0 8 -4 15 -8 15 -15 0 -52 37 -45 44 3 3 -1 6 -10 6 -9
0 -22 10 -28 23 -7 12 -19 29 -28 37 -19 18 -50 67 -58 93 -3 9 -10 17 -15 17
-6 0 -8 7 -4 15 3 8 1 15 -5 15 -10 0 -42 65 -42 88 0 6 -4 12 -9 12 -4 0 -7
3 -6 8 1 4 -3 23 -10 42 -6 19 -14 46 -16 60 -3 14 -5 25 -6 25 -3 0 -10 37
-16 85 -11 76 -6 402 6 430 1 3 2 8 1 12 0 4 4 19 9 33 7 17 6 25 -1 25 -8 0
-8 4 -1 13 10 12 17 35 29 100 3 15 9 27 13 27 4 0 6 11 5 25 -2 14 2 25 8 25
7 0 5 5 -3 10 -10 6 -11 10 -2 10 6 0 12 9 12 19 0 11 5 23 10 26 6 4 8 10 5
15 -3 5 -1 11 5 15 5 3 10 17 10 31 0 13 5 24 12 24 6 0 9 3 5 6 -3 4 1 21 10
38 9 17 17 36 18 41 1 15 28 69 38 76 5 3 8 9 8 13 -3 19 0 27 7 22 5 -3 9 1
9 9 0 16 72 155 90 173 7 7 13 20 13 28 0 8 5 14 10 14 6 0 10 7 10 15 0 8 5
15 10 15 6 0 10 7 10 15 0 8 5 15 10 15 6 0 10 7 10 15 0 8 4 15 8 15 10 0 37
51 33 63 -1 5 3 6 9 2 5 -3 15 5 22 19 6 14 15 26 20 26 5 0 7 4 4 9 -3 5 1
11 9 15 8 3 15 13 15 21 0 9 4 14 9 10 5 -3 12 4 16 15 3 11 10 20 15 20 5 0
12 9 15 20 3 11 13 20 21 20 8 0 14 7 14 15 0 7 8 19 18 24 9 6 14 11 10 11
-15 0 253 260 352 340 24 19 48 40 54 45 6 6 27 22 46 35 19 13 44 32 54 42
11 10 28 20 38 24 10 3 18 10 18 15 0 5 7 9 15 9 8 0 15 4 15 10 0 5 16 17 35
26 19 9 35 21 35 26 0 5 4 7 9 4 5 -3 12 1 15 10 4 9 13 14 21 10 8 -3 15 -1
15 4 0 5 16 17 35 26 19 9 35 21 35 26 0 5 4 7 8 4 5 -3 18 2 28 12 11 9 26
18 34 20 8 2 18 9 22 15 4 7 8 8 8 3 0 -5 7 -3 15 4 8 7 15 9 15 4 0 -5 4 -4
8 2 8 13 72 47 72 39 0 -3 10 3 22 14 11 11 24 18 29 16 4 -3 13 1 21 8 7 7
20 13 28 13 8 0 35 10 60 21 40 19 75 34 90 38 3 0 30 9 60 20 30 11 58 18 63
17 4 -1 7 3 7 10 0 6 3 9 6 6 3 -4 20 -2 37 3 40 12 78 21 95 22 6 0 12 3 12
7 0 4 6 7 13 8 33 2 84 10 97 15 21 8 88 18 133 20 20 1 37 4 37 7 0 3 26 5
58 4 31 0 66 4 77 9 11 6 20 6 22 1 3 -10 58 -10 98 0 14 4 25 3 25 -1 0 -5
24 -8 53 -8 28 1 55 -4 59 -10 5 -6 8 -6 8 2 0 9 7 10 25 3 14 -5 25 -7 25 -4
0 4 6 2 13 -3 6 -5 30 -11 52 -12 22 -2 47 -6 55 -11 8 -4 23 -6 33 -5 9 2 17
0 17 -5 0 -5 8 -7 18 -6 9 2 19 0 22 -5 3 -4 17 -10 30 -12 27 -4 48 -12 95
-32 16 -8 33 -11 37 -9 4 3 8 0 8 -5 0 -6 7 -11 15 -11 8 0 29 -9 47 -19 17
-11 35 -18 40 -15 4 3 8 1 8 -4 0 -5 18 -17 40 -27 22 -10 40 -22 40 -26 0 -4
8 -10 19 -14 10 -3 28 -13 40 -23 12 -9 35 -28 53 -42 41 -32 146 -138 178
-179 14 -17 31 -38 38 -46 6 -7 12 -18 12 -24 0 -6 4 -11 9 -11 5 0 12 -8 15
-17 16 -44 64 -121 71 -115 5 4 6 2 2 -3 -3 -6 1 -25 9 -43 8 -18 20 -46 28
-64 8 -17 13 -40 11 -50 -2 -10 0 -16 6 -13 8 6 13 -8 10 -28 -1 -4 3 -16 9
-27 5 -10 12 -34 14 -52 3 -18 6 -33 7 -33 1 0 3 -9 5 -20 4 -19 5 -33 19
-154 3 -30 8 -58 11 -63 3 -4 0 -8 -6 -8 -6 0 -8 -5 -3 -12 11 -18 10 -42 -2
-50 -7 -5 -6 -8 1 -8 12 0 6 -168 -11 -295 -3 -22 -8 -60 -10 -85 -2 -25 -4
-46 -6 -47 -2 -4 -5 -13 -14 -58 -4 -22 -10 -44 -13 -50 -4 -5 -7 -21 -8 -35
-1 -14 -2 -25 -3 -25 -2 0 -4 -7 -6 -15 -10 -49 -29 -107 -38 -119 -10 -12 -9
-13 3 -6 11 7 11 3 -3 -18 -10 -15 -15 -31 -12 -36 2 -5 -2 -22 -10 -37 -8
-16 -15 -35 -15 -41 0 -7 -5 -13 -11 -13 -5 0 -7 -5 -4 -10 4 -6 2 -17 -4 -24
-6 -7 -12 -21 -14 -32 -1 -10 -6 -25 -10 -31 -5 -7 -5 -13 0 -13 4 0 2 -4 -5
-9 -7 -4 -15 -14 -16 -22 -2 -8 -10 -31 -20 -51 -9 -21 -16 -42 -16 -48 0 -5
-5 -10 -12 -10 -6 0 -9 -3 -5 -6 3 -3 -10 -35 -29 -71 -19 -36 -34 -71 -34
-79 0 -8 -4 -14 -9 -14 -7 0 -18 -27 -21 -47 0 -2 -9 -12 -20 -23 -12 -12 -18
-25 -15 -29 2 -5 -2 -12 -11 -15 -9 -4 -14 -9 -11 -13 4 -3 -2 -17 -13 -31
-11 -13 -18 -28 -15 -31 2 -4 -5 -14 -16 -21 -10 -8 -19 -20 -19 -26 0 -7 -8
-20 -17 -30 -10 -10 -18 -20 -18 -23 -1 -17 -40 -69 -49 -64 -5 4 -7 -1 -3
-10 4 -11 -1 -21 -14 -28 -11 -6 -18 -13 -15 -16 3 -3 0 -11 -7 -18 -7 -7 -30
-38 -52 -69 -22 -31 -43 -56 -47 -56 -3 0 -9 -8 -13 -19 -3 -10 -19 -31 -35
-47 -16 -16 -30 -33 -30 -37 0 -4 -15 -23 -32 -42 -18 -18 -51 -55 -73 -81
-76 -88 -92 -104 -99 -96 -4 4 -6 0 -4 -8 2 -8 -3 -14 -9 -13 -7 2 -12 -1 -10
-5 3 -11 -73 -88 -84 -85 -5 2 -8 -1 -6 -5 3 -10 -81 -92 -94 -92 -6 0 -8 -4
-4 -9 3 -5 -4 -12 -15 -16 -11 -3 -20 -13 -20 -21 0 -8 -4 -13 -8 -10 -5 3
-18 -5 -29 -17 -19 -20 -77 -70 -137 -119 -12 -9 -36 -30 -54 -45 -19 -15 -37
-28 -40 -28 -4 0 -16 -9 -27 -21 -11 -11 -39 -33 -62 -49 -24 -15 -43 -32 -43
-37 0 -5 -4 -7 -8 -4 -5 3 -18 -2 -28 -12 -10 -9 -39 -30 -64 -47 -25 -16 -51
-36 -58 -42 -7 -7 -20 -13 -28 -13 -8 0 -14 -4 -14 -10 0 -5 -6 -10 -14 -10
-8 0 -16 -7 -20 -15 -3 -8 -12 -15 -20 -15 -8 0 -28 -11 -45 -26 -16 -14 -34
-25 -38 -26 -17 -2 -53 -22 -53 -30 0 -4 -6 -8 -14 -8 -7 0 -25 -9 -40 -21
-14 -11 -26 -17 -26 -13 0 4 -8 1 -17 -7 -10 -8 -43 -28 -73 -44 -30 -15 -58
-33 -62 -39 -5 -7 -8 -6 -8 4 -1 12 -3 12 -14 -2 -7 -10 -19 -18 -26 -18 -8 0
-21 -7 -31 -16 -10 -9 -29 -17 -42 -18 -14 0 -23 -4 -22 -7 4 -5 -21 -18 -110
-55 -22 -9 -51 -21 -65 -27 -14 -6 -28 -10 -32 -9 -5 1 -8 -3 -8 -9 0 -5 -4
-7 -10 -4 -5 3 -10 0 -10 -7 0 -9 -3 -9 -10 2 -6 9 -10 10 -10 3 0 -6 -17 -17
-37 -23 -21 -7 -42 -16 -47 -21 -6 -5 -20 -9 -32 -9 -13 0 -26 -5 -29 -11 -4
-6 -13 -8 -20 -5 -8 3 -19 -2 -25 -9 -7 -8 -16 -12 -21 -9 -5 3 -15 2 -21 -3
-7 -4 -16 -8 -20 -9 -5 -1 -9 -2 -10 -4 -2 -1 -10 -3 -18 -5 -8 -2 -55 -15
-104 -29 -48 -14 -92 -23 -97 -20 -5 3 -9 0 -9 -5 0 -6 -13 -11 -30 -11 -16 0
-30 -4 -30 -10 0 -5 -7 -7 -15 -4 -8 4 -21 2 -28 -3 -6 -5 -24 -9 -39 -8 -16
0 -28 -2 -28 -6 0 -4 -8 -6 -17 -4 -10 1 -22 0 -28 -3 -5 -3 -21 -7 -35 -8
-14 -1 -41 -5 -60 -8 -125 -19 -195 -27 -293 -30 -48 -2 -90 -6 -94 -10 -3 -3
-12 -1 -20 5 -10 9 -17 8 -28 -1 -8 -7 -15 -8 -15 -3 0 5 -40 9 -90 8 -49 0
-90 2 -90 5 0 3 -19 6 -43 7 -23 1 -55 4 -72 7 -74 15 -151 27 -172 29 -7 0
-13 3 -13 7 0 4 -10 6 -22 6 -13 -1 -29 2 -35 7 -7 5 -19 7 -27 4 -8 -3 -17
-3 -20 1 -9 9 -86 10 -92 1 -2 -5 -11 -6 -19 -2 -8 3 -15 0 -15 -6 0 -6 -6 -8
-13 -5 -7 2 -22 -4 -32 -14 -11 -10 -27 -21 -35 -24 -26 -10 -53 -103 -47
-160 4 -28 12 -56 18 -64 6 -8 9 -14 6 -14 -4 0 8 -15 25 -33 18 -17 35 -31
38 -31 3 1 16 -6 30 -16 26 -18 117 -47 170 -53 8 -1 18 -6 22 -12 5 -6 8 -5
8 4 0 10 3 11 13 2 8 -6 35 -13 61 -16 26 -3 58 -10 71 -15 18 -7 25 -6 25 3
0 8 3 9 8 1 4 -6 17 -10 30 -9 13 1 25 -3 29 -8 3 -5 9 -3 14 4 5 9 9 10 9 2
0 -6 9 -9 22 -5 16 4 19 2 13 -9 -7 -11 -6 -12 6 -3 8 6 23 9 34 7 37 -9 475
-10 481 -2 3 5 10 9 15 9 6 0 7 -5 3 -12 -5 -7 -3 -8 6 -3 12 7 41 11 147 18
17 2 35 6 39 10 4 4 13 2 21 -4 7 -6 13 -7 13 -2 0 5 12 10 28 10 15 1 38 4
52 7 53 13 86 18 113 19 15 0 27 3 27 7 0 6 47 12 102 14 14 1 24 3 22 5 -8 8
60 27 93 27 17 -1 31 3 30 8 -1 5 12 11 28 13 17 2 36 4 43 5 6 1 12 4 12 8 0
3 8 6 18 7 26 2 45 8 61 17 7 5 21 10 30 11 29 3 76 18 89 28 6 5 12 7 12 3 0
-4 14 0 30 9 17 9 30 13 30 9 0 -4 6 -2 13 4 6 5 28 13 47 17 19 4 37 11 40
16 3 4 19 10 35 13 16 3 31 10 33 16 2 5 8 8 13 4 5 -3 9 0 9 6 0 6 5 8 10 5
6 -4 17 -1 25 5 8 6 19 9 25 5 5 -3 10 -2 10 4 0 10 38 27 53 23 4 -1 7 3 7 9
0 5 4 8 9 4 5 -3 15 0 23 7 7 7 20 14 28 16 15 4 115 48 140 63 32 19 85 42
93 41 4 -1 7 3 7 8 0 6 7 10 16 10 9 0 12 5 8 12 -4 7 -3 8 5 4 6 -4 25 2 41
14 16 12 34 19 39 16 5 -3 12 1 15 10 3 8 10 12 16 9 5 -3 10 -1 10 5 0 6 5 8
10 5 6 -3 10 -2 10 3 0 8 34 29 120 73 19 10 31 18 25 19 -5 0 8 9 30 20 57
29 82 44 103 63 10 10 22 14 25 10 4 -3 7 0 7 7 0 7 3 11 6 7 3 -3 14 2 24 11
21 20 66 52 77 55 4 1 18 12 32 25 13 12 26 20 29 18 2 -3 14 6 27 20 12 13
25 24 29 24 8 0 27 16 56 44 11 11 20 16 20 11 0 -5 7 0 15 11 8 10 15 16 15
13 0 -4 21 13 47 37 26 23 49 41 51 39 2 -2 18 11 36 28 18 18 54 50 80 72 26
22 62 54 79 70 17 17 34 29 38 28 4 -2 10 6 14 16 3 10 16 24 30 31 13 7 22
17 19 22 -3 4 -1 8 4 8 14 0 272 266 272 281 0 4 8 14 18 21 9 7 37 38 62 68
24 30 54 65 67 76 12 12 20 24 17 27 -3 2 7 15 21 28 13 13 25 30 25 37 0 6 4
12 9 12 5 0 25 25 44 55 19 30 37 52 41 48 3 -3 6 1 6 10 0 9 4 17 10 17 5 0
9 3 8 8 -5 13 28 52 37 44 5 -4 5 -1 1 6 -4 7 4 28 21 50 15 20 37 53 47 72
11 19 22 37 25 40 7 6 42 68 77 138 14 28 31 52 36 52 5 0 6 4 3 10 -3 6 -2
10 4 10 6 0 8 7 5 15 -4 8 -2 15 2 15 10 0 40 60 36 73 -1 4 2 7 7 7 5 0 12
12 16 27 3 15 11 30 16 34 5 3 11 16 14 28 2 13 9 29 15 35 5 7 7 16 3 19 -3
4 -1 7 5 7 7 0 11 3 10 8 -1 4 4 20 10 35 7 16 12 33 12 38 0 5 6 9 13 9 8 0
7 4 -3 10 -10 6 -11 10 -2 10 6 0 12 9 12 19 0 11 6 26 13 33 12 14 18 30 21
58 1 9 5 21 10 28 4 7 10 24 12 39 3 15 10 33 16 40 6 7 7 13 2 13 -5 0 -2 5
6 10 10 7 11 10 2 10 -8 0 -9 5 -3 18 9 16 21 47 26 65 2 4 3 19 4 33 0 14 5
23 9 20 4 -3 7 8 6 25 -1 16 2 29 6 29 5 0 7 8 5 18 -1 9 1 22 5 27 4 6 8 17
8 25 1 8 3 26 6 40 2 14 7 45 10 70 8 53 14 85 16 85 4 0 13 123 14 182 1 35
3 63 6 63 3 0 4 46 3 102 -1 57 -2 103 -3 103 -7 0 -5 47 2 51 4 3 5 11 1 17
-4 7 -8 23 -10 37 -5 58 -11 105 -14 105 -1 0 -3 16 -4 36 -1 19 -5 40 -8 46
-7 10 -19 75 -20 101 0 6 -4 12 -9 12 -4 0 -7 3 -6 8 4 13 -25 107 -39 123 -7
9 -10 18 -7 21 3 3 -8 38 -25 76 -16 39 -27 73 -24 76 4 3 1 6 -5 6 -11 0 -38
51 -40 74 0 5 -4 12 -9 15 -10 7 -63 88 -63 96 0 4 -6 13 -12 20 -29 32 -38
45 -33 45 3 0 -3 8 -12 18 -19 19 -50 56 -94 109 -15 18 -30 29 -33 26 -3 -4
-6 -1 -6 5 0 15 -36 52 -51 52 -5 0 -7 5 -4 10 3 6 2 10 -3 10 -5 0 -23 14
-40 30 -18 17 -36 30 -42 30 -5 0 -10 4 -10 10 0 11 -114 90 -130 90 -6 0 -9
4 -5 9 3 5 -3 12 -13 15 -10 4 -45 22 -77 41 -31 19 -62 35 -67 35 -5 0 -16 7
-25 15 -8 8 -19 13 -24 10 -5 -4 -9 -1 -9 5 0 6 -4 9 -9 6 -5 -3 -14 1 -21 9
-7 8 -19 15 -26 15 -8 0 -22 4 -32 10 -14 8 -57 27 -82 35 -3 1 -13 5 -22 9
-9 4 -22 8 -30 10 -7 1 -18 4 -23 8 -6 3 -27 9 -47 13 -21 4 -36 10 -34 14 3
4 -8 6 -25 5 -16 -1 -29 1 -29 5 0 8 -179 47 -199 42 -7 -1 -11 1 -8 6 3 4
-14 8 -36 7 -23 0 -46 2 -52 5 -21 11 -454 21 -460 11z"/>
</g>
</svg>
